<?xml version="1.0" standalone="no"?>
<!DOCTYPE svg PUBLIC "-//W3C//DTD SVG 20010904//EN"
 "http://www.w3.org/TR/2001/REC-SVG-20010904/DTD/svg10.dtd">
<svg version="1.0" xmlns="http://www.w3.org/2000/svg"
 width="882.000000pt" height="112.000000pt" viewBox="0 0 882.000000 112.000000"
 preserveAspectRatio="xMidYMid meet">
<metadata>
Created by potrace 1.16, written by Peter Selinger 2001-2019
</metadata>
<g transform="translate(0.000000,112.000000) scale(0.100000,-0.100000)"
fill="#ffffff" stroke="none">
<path d="M1010 1079 c-153 -39 -281 -129 -362 -253 l-38 -59 32 -55 c17 -31
44 -87 58 -125 l27 -69 11 30 c7 20 7 44 1 69 -10 44 -9 217 2 234 9 16 39 4
39 -15 0 -8 -8 -19 -17 -25 -14 -8 -18 -23 -18 -78 0 -37 4 -81 8 -97 l8 -28
31 46 c17 26 45 58 63 72 45 34 119 143 117 171 -2 27 23 42 41 24 8 -8 5 -17
-10 -33 -21 -24 -121 -175 -142 -215 -11 -21 -9 -23 12 -23 39 0 131 52 145
83 13 26 35 36 46 18 16 -25 -82 -92 -163 -112 l-66 -16 -23 -67 c-12 -37 -25
-95 -29 -129 l-6 -61 44 38 c24 20 94 63 155 93 l112 56 26 111 c36 155 46
226 46 339 l0 97 -37 -1 c-21 0 -72 -9 -113 -20z"/>
<path d="M179 968 c-45 -62 -105 -193 -123 -269 -20 -83 -21 -227 -1 -304 48
-182 210 -334 358 -335 23 0 70 -6 104 -13 l62 -13 -40 38 c-44 43 -125 150
-133 176 -4 12 -25 21 -67 29 -37 7 -78 23 -103 41 -23 16 -49 32 -58 35 -22
8 -23 33 -2 41 20 8 34 -1 34 -20 0 -22 76 -72 121 -79 22 -4 42 -5 44 -3 3 2
-6 35 -19 73 -21 65 -27 72 -67 91 -46 22 -144 115 -144 137 0 6 9 12 20 12
14 0 21 -8 23 -27 4 -31 67 -91 114 -107 l30 -11 -8 43 c-4 23 -8 94 -8 157
-1 63 -3 122 -6 130 -3 9 3 16 18 18 16 2 22 -2 22 -15 0 -11 -5 -24 -11 -30
-7 -7 -10 -50 -7 -119 3 -98 6 -116 35 -176 18 -38 34 -68 37 -68 3 0 18 24
33 53 19 38 27 66 26 105 0 43 3 52 17 52 21 0 33 -23 19 -37 -5 -5 -16 -36
-24 -68 -9 -33 -27 -73 -40 -91 l-24 -32 46 -72 47 -73 18 23 c26 32 49 118
42 157 -5 28 -3 33 14 33 21 0 37 -26 22 -35 -5 -3 -14 -30 -20 -60 -6 -30
-22 -70 -36 -90 -18 -28 -22 -40 -14 -55 15 -27 113 -111 121 -102 27 29 39
264 18 364 -45 219 -190 402 -406 512 l-53 26 -31 -42z"/>
<path d="M4346 866 c-214 -90 -273 -375 -109 -526 88 -82 206 -115 305 -86
148 43 239 164 240 319 0 217 -237 377 -436 293z m223 -73 c112 -55 168 -194
126 -312 -22 -65 -62 -108 -128 -141 -75 -37 -132 -39 -202 -6 -94 44 -144
126 -145 234 0 73 19 124 63 170 79 83 189 104 286 55z"/>
<path d="M5076 866 c-73 -31 -138 -93 -174 -166 -37 -75 -38 -190 -3 -267 60
-135 236 -219 373 -179 148 43 239 165 240 319 0 217 -237 377 -436 293z m222
-72 c111 -55 168 -197 127 -313 -44 -127 -193 -201 -311 -156 -102 39 -164
130 -164 243 0 73 19 124 63 170 79 83 189 104 285 56z"/>
<path d="M1762 848 l3 -33 88 -3 87 -3 0 -279 0 -280 35 0 35 0 0 280 0 280
90 0 90 0 0 35 0 35 -216 0 -215 0 3 -32z"/>
<path d="M2280 565 l0 -315 35 0 34 0 3 138 3 137 163 3 162 2 0 -140 0 -140
35 0 35 0 0 315 0 315 -35 0 -35 0 0 -140 0 -140 -165 0 -165 0 0 140 0 140
-35 0 -35 0 0 -315z"/>
<path d="M2860 565 l0 -315 190 0 190 0 0 35 0 35 -150 0 -150 0 0 105 0 105
110 0 110 0 0 35 0 35 -110 0 -110 0 0 105 0 105 145 0 145 0 0 35 0 35 -185
0 -185 0 0 -315z"/>
<path d="M3610 565 l0 -315 35 0 35 0 0 115 0 115 74 0 75 0 81 -115 c80 -114
81 -115 120 -115 l40 0 -63 88 c-34 48 -73 101 -85 119 l-22 31 38 19 c57 30
94 97 94 171 0 65 -15 103 -59 144 -47 45 -101 58 -239 58 l-124 0 0 -315z
m311 208 c40 -39 51 -111 25 -161 -25 -48 -67 -65 -173 -70 l-93 -4 0 137 0
137 105 -4 c102 -3 105 -4 136 -35z"/>
<path d="M5592 848 l3 -33 88 -3 87 -3 0 -279 0 -280 35 0 35 0 0 280 0 280
90 0 90 0 0 35 0 35 -216 0 -215 0 3 -32z"/>
<path d="M6380 565 l0 -315 180 0 180 0 0 35 0 35 -140 0 -140 0 0 280 0 280
-40 0 -40 0 0 -315z"/>
<path d="M6830 565 l0 -315 190 0 190 0 0 35 0 35 -150 0 -150 0 0 105 0 105
110 0 110 0 0 35 0 35 -110 0 -110 0 0 105 0 105 145 0 145 0 0 35 0 35 -185
0 -185 0 0 -315z"/>
<path d="M7280 858 c6 -13 68 -153 139 -313 l129 -290 32 0 33 0 138 309 c77
171 139 311 139 313 0 3 -17 3 -37 1 l-37 -3 -114 -262 c-64 -145 -118 -261
-120 -258 -3 3 -56 121 -118 262 l-113 258 -41 3 c-39 3 -40 2 -30 -20z"/>
<path d="M7970 565 l0 -315 185 0 185 0 0 35 0 35 -150 0 -150 0 0 105 0 105
115 0 115 0 0 35 0 34 -112 3 -113 3 -3 102 -3 102 148 3 148 3 3 33 3 32
-185 0 -186 0 0 -315z"/>
<path d="M8440 565 l0 -315 180 0 180 0 0 35 0 35 -145 0 -145 0 0 280 0 280
-35 0 -35 0 0 -315z"/>
<path d="M1006 446 c-129 -38 -237 -166 -271 -324 -9 -43 2 -42 93 8 68 39 72
43 72 76 0 19 5 45 12 57 6 12 14 36 18 52 4 21 12 30 25 30 27 0 32 -35 6
-42 -22 -5 -55 -79 -49 -107 5 -24 110 54 250 186 17 16 35 25 44 21 26 -10
11 -34 -30 -48 -26 -9 -68 -42 -120 -94 -75 -75 -79 -81 -54 -81 38 0 97 30
104 52 3 11 13 18 22 16 24 -5 27 -37 5 -44 -10 -3 -34 -13 -53 -22 -19 -9
-53 -16 -76 -17 -39 -1 -80 -29 -197 -135 -14 -13 120 9 176 28 140 50 246
168 292 326 9 31 15 60 12 63 -13 13 -235 12 -281 -1z"/>
</g>
</svg>
